# AST/ASF file generated using VICON BodyLanguage
# -----------------------------------------------
:version 1.10
:name VICON
:units
  mass 1.0
  length 0.45
  angle deg
:documentation
   .ast/.asf automatically generated from VICON data using
   VICON BodyBuilder and BodyLanguage model FoxedUp or BRILLIANT.MOD
:root
   order TX TY TZ RX RY RZ
   axis XYZ
   position 0 0 0  
   orientation 0 0 0 
:bonedata
  begin
     id 1 
     name lhipjoint
     direction 0.64773 -0.699417 0.302095 
     length 2.48597 
     axis 0 0 0  XYZ
  end
  begin
     id 2 
     name lfemur
     direction 0.34202 -0.939693 0  
     length 6.71947  
     axis 0 0 20  XYZ
    dof rx ry rz
    limits (-160.0 20.0)
           (-70.0 70.0)
           (-60.0 70.0)
  end
  begin
     id 3 
     name ltibia
     direction 0.34202 -0.939693 0   
     length 8.08777   
     axis 0 0 20   XYZ
    dof rx
    limits (-10.0 170.0)
  end
  begin
     id 4 
     name lfoot
     direction 0.0808503 -0.222134 0.971658   
     length 2.08264   
     axis -90 7.62852e-016 20   XYZ
    dof rx rz
    limits (-45.0 90.0)
           (-70.0 20.0)
  end
  begin
     id 5 
     name ltoes
     direction 1.53502e-011 -4.22007e-011 1   
     length 1.04662   
     axis -90 7.62852e-016 20   XYZ
    dof rx
    limits (-90.0 20.0)
  end
  begin
     id 6 
     name rhipjoint
     direction -0.610924 -0.726792 0.313919   
     length 2.39233  
     axis 0 0 0  XYZ 
  end
  begin
     id 7 
     name rfemur
     direction -0.34202 -0.939693 0   
     length 6.96955   
     axis 0 0 -20   XYZ
    dof rx ry rz
    limits (-160.0 20.0)
           (-70.0 70.0)
           (-70.0 60.0)
  end
  begin
     id 8 
     name rtibia
     direction -0.34202 -0.939693 0   
     length 8.19584   
     axis 0 0 -20   XYZ
    dof rx
    limits (-10.0 170.0)
 end
 begin
     id 9 
     name rfoot
     direction -0.077777 -0.213691 0.9738   
     length 2.07539  
     axis -90 -7.62852e-016 -20   XYZ
    dof rx rz
    limits (-45.0 90.0)
           (-20.0 70.0)
  end
  begin
     id 10 
     name rtoes
     direction -1.53558e-011 -4.22006e-011 1   
     length 1.04381   
     axis -90 -7.62852e-016 -20   XYZ
    dof rx
    limits (-90.0 20.0)
  end
  begin
     id 11 
     name lowerback
     direction -0.00971646 0.996074 0.0879841   
     length 1.67643   
     axis 0 0 0   XYZ
    dof rx ry rz
    limits (-20.0 45.0)
           (-30.0 30.0)
           (-30.0 30.0)
  end
  begin
     id 12 
     name upperback
     direction 0.0127391 0.991676 0.128127   
     length 1.63741   
     axis 0 0 0   XYZ
    dof rx ry rz
    limits (-20.0 45.0)
           (-30.0 30.0)
           (-30.0 30.0)
  end
  begin
     id 13 
     name thorax
     direction 0.0167583 0.996049 0.0872067   
     length 1.65931   
     axis 0 0 0   XYZ
    dof rx ry rz
    limits (-20.0 45.0)
           (-30.0 30.0)
           (-30.0 30.0)
  end
  begin
     id 14 
     name lowerneck
     direction -0.0317829 0.998312 0.0486079   
     length 1.79021   
     axis 0 0 0   XYZ
    dof rx ry rz
    limits (-20.0 45.0)
           (-30.0 30.0)
           (-30.0 30.0)
  end
  begin
     id 15 
     name upperneck
     direction 0.0896851 0.972452 -0.215159   
     length 1.78797   
     axis 0 0 0   XYZ
    dof rx ry rz
    limits (-20.0 45.0)
           (-30.0 30.0)
           (-30.0 30.0)
  end
  begin
     id 16
     name head
     direction 0.0310949 0.996503 -0.0775582  
     length 1.81549  
     axis 0 0 0   XYZ
    dof rx ry rz
    limits (-20.0 45.0)
           (-30.0 30.0)
           (-30.0 30.0)
  end
  begin
     id 17 
     name lclavicle
     direction 0.853638 0.502051 -0.138733  
     length 3.31627  
     axis 0 0 0   XYZ
    dof ry rz
    limits (-20.0 10.0)
           (0.0 20.0)
  end
  begin
     id 18 
     name lhumerus
     direction 1 -4.48962e-011 -1.41788e-018   
     length 5.54893   
     axis 180 -30 -90   XYZ
    dof rx ry rz
    limits (-60.0 90.0)
           (-90.0 90.0)
           (-90.0 90.0)
  end
  begin
     id 19
     name lradius
     direction 1 -4.48962e-011 -4.95754e-027   
     length 3.02898   
     axis 180 -30 -90   XYZ
    dof rx
    limits (-10.0 170.0)
  end
  begin
     id 20
     name lwrist
     direction 1 -4.48952e-011 -1.03764e-026   
     length 1.51449   
     axis 9.09556e-015 90 90   XYZ
    dof ry
    limits (-180.0 0.0)
 end
  begin
     id 21 
     name lhand
     direction 1 -4.4902e-011 -2.07528e-026   
     length 0.640951   
     axis 1.3242e-014 90 90   XYZ
    dof rx rz
    limits (-90.0 90.0)
           (-45.0 45.0)
  end
  begin
     id 22 
     name lfingers
     direction 1 -4.49014e-011 -4.15056e-026   
     length 0.516751   
     axis 2.64841e-014 90 90   XYZ
    dof rx
    limits (0.0 90.0)
  end
  begin
     id 23
     name lthumb
     direction 0.707107 -6.35008e-011 0.707107   
     length 0.741954   
     axis -90 45 2.85299e-015   XYZ
    dof rx rz
    limits (-45.0 45.0)
           (-45.0 45.0)
  end
  begin
     id 24 
     name rclavicle
     direction -0.888531 0.455324 -0.0565039   
     length 3.20126  
     axis 0 0 0   XYZ 
    dof ry rz
    limits (-10.0 20.0)
           (-20.0 0.0)
  end
  begin
     id 25 
     name rhumerus
     direction -1 -4.48946e-011 -8.98298e-028  
     length 5.3519   
     axis 180 30 90   XYZ
    dof rx ry rz
    limits (-90.0 60.0)
           (-90.0 90.0)
           (-90.0 90.0)
  end
  begin
     id 26 
     name rradius
     direction -1 -4.4899e-011 -3.18779e-027   
     length 3.02531   
     axis 180 30 90   XYZ
    dof rx
    limits (-10.0 170.0)
  end
  begin
     id 27 
     name rwrist
     direction -1 -4.4897e-011 -1.03764e-026   
     length 1.51266   
     axis 9.09556e-015 -90 -90   XYZ
    dof ry
    limits (-180.0 0.0)
  end
  begin
     id 28
     name rhand
     direction -1 -4.48941e-011 -2.07528e-026   
     length 0.78389   
     axis 1.3242e-014 -90 -90   XYZ
    dof rx rz
    limits (-90.0 90.0)
           (-45.0 45.0)
  end
  begin
     id 29
     name rfingers
     direction -1 -4.49012e-011 -4.15056e-026   
     length 0.631992   
     axis 2.64841e-014 -90 -90   XYZ
    dof rx
    limits (0.0 90.0)
  end
  begin
     id 30
     name rthumb
     direction -0.707107 -6.3496e-011 0.707107   
     length 0.907418   
     axis -90 -45 -2.85299e-015   XYZ
    dof rx rz
    limits (-45.0 45.0)
           (-45.0 45.0)
  end
:hierarchy
  begin
    root lhipjoint rhipjoint lowerback
    lhipjoint lfemur
    lfemur ltibia
    ltibia lfoot
    lfoot ltoes
    rhipjoint rfemur
    rfemur rtibia
    rtibia rfoot
    rfoot rtoes
    lowerback upperback
    upperback thorax
    thorax lowerneck lclavicle rclavicle
    lowerneck upperneck
    upperneck head
    lclavicle lhumerus
    lhumerus lradius
    lradius lwrist
    lwrist lhand lthumb
    lhand lfingers
    rclavicle rhumerus
    rhumerus rradius
    rradius rwrist
    rwrist rhand rthumb
    rhand rfingers
  end

#!OML:ASF E:\Style3\Style3.ASF
:FULLY-SPECIFIED
:DEGREES
1001
root -0.530341 17.8653 0.732337 -121.616 86.7647 -132.262
lowerback -8.00854 0.928085 1.22771
upperback -3.06658 1.25814 -1.46188
thorax 1.37725 0.654511 -2.08195
lowerneck -5.01383 -7.31279 -7.34592
upperneck 52.3484 -5.32399 1.55538
head 23.9742 -1.96099 1.91267
rclavicle -1.03244e-014 7.95139e-016
rhumerus 12.5573 41.3225 -74.1061
rradius 122.536
rwrist 16.1245
rhand -31.5742 44.6793
rfingers 7.12502
rthumb -4.83758 14.7545
lclavicle -1.03244e-014 7.95139e-016
lhumerus 2.79422 -40.9426 86.2839
lradius 125.294
lwrist 20.4727
lhand -33.0965 -0.541101
lfingers 7.12502
lthumb -6.30736 29.345
rfemur -9.51577 12.1169 16.3715
rtibia 7.6622
rfoot -6.61786 -19.6915
rtoes -25.5801
lfemur 0 0 0
ltibia 0
lfoot 0 0
ltoes 0
1002
root -0.537434 17.8644 0.729941 -121.584 86.7353 -132.227
lowerback -8.00596 0.943032 1.30698
upperback -2.88991 1.26811 -1.50654
thorax 1.56121 0.659536 -2.17015
lowerneck -4.94001 -7.35768 -7.50583
upperneck 52.2222 -5.35144 1.48077
head 23.8186 -2.02266 1.8848
rclavicle 1.50579e-014 7.95139e-016
rhumerus 12.831 41.3851 -73.7027
rradius 122.804
rwrist 16.7126
rhand -31.8029 44.9246
rfingers 7.12502
rthumb -5.05837 15.0049
lclavicle 1.50579e-014 7.95139e-016
lhumerus 2.99541 -41.2863 86.1516
lradius 125.53
lwrist 20.3048
lhand -33.1236 -0.711551
lfingers 7.12502
lthumb -6.33356 29.1738
rfemur -9.60974 12.1017 16.38
rtibia 7.77617
rfoot -6.61543 -19.6887
rtoes -25.6535
lfemur 0 0 0
ltibia 0
lfoot 0 0
ltoes 0
1003
root -0.544845 17.8645 0.729588 -122.275 86.7797 -132.893
lowerback -7.89841 0.943881 1.27438
upperback -2.73901 1.26933 -1.56031
thorax 1.65813 0.659953 -2.20746
lowerneck -4.84075 -7.42084 -7.70537
upperneck 52.1194 -5.38539 1.38795
head 23.6849 -2.09593 1.85499
rclavicle -5.2181e-015 1.35174e-014
rhumerus 13.0208 41.5108 -73.3012
rradius 123.076
rwrist 17.4213
rhand -32.3806 45.0426
rfingers 7.12502
rthumb -5.6162 15.1371
lclavicle -5.2181e-015 1.35174e-014
lhumerus 3.11014 -41.5995 86.0749
lradius 125.842
lwrist 20.1168
lhand -32.9498 -0.638812
lfingers 7.12502
lthumb -6.16572 29.2515
rfemur -9.63905 12.0936 16.3112
rtibia 7.82972
rfoot -6.66394 -19.673
rtoes -25.4295
lfemur 0 0 0
ltibia 0
lfoot 0 0
ltoes 0
1004
root -0.553039 17.8647 0.730641 -122.95 86.8245 -133.511
lowerback -7.67556 0.929311 1.24697
upperback -2.5923 1.25053 -1.63233
thorax 1.68631 0.649613 -2.27017
lowerneck -4.82454 -7.4824 -7.81006
upperneck 52.0163 -5.38994 1.17854
head 23.5628 -2.15283 1.74366
rclavicle 4.4975e-015 -9.54166e-015
rhumerus 13.2123 41.5645 -72.9954
rradius 123.331
rwrist 17.9793
rhand -32.6372 45.2094
rfingers 7.12502
rthumb -5.86398 15.3105
lclavicle 4.4975e-015 -9.54166e-015
lhumerus 3.19544 -41.9382 85.9144
lradius 126.155
lwrist 19.9001
lhand -33.0732 -0.577989
lfingers 7.12502
lthumb -6.28489 29.3088
rfemur -9.64363 12.0923 16.2585
rtibia 7.90309
rfoot -6.65471 -19.6712
rtoes -25.4214
lfemur 0 0 0
ltibia 0
lfoot 0 0
ltoes 0
1005
root -0.561538 17.8651 0.730665 -123.053 86.7876 -133.587
lowerback -7.42501 0.905392 1.40176
upperback -2.50814 1.20765 -1.71266
thorax 1.6368 0.626584 -2.44717
lowerneck -4.79551 -7.53381 -7.88361
upperneck 51.9782 -5.32919 0.890621
head 23.4897 -2.18434 1.59877
rclavicle -5.49143e-015 2.3059e-014
rhumerus 13.2693 41.6754 -72.8549
rradius 123.649
rwrist 18.2662
rhand -32.5771 45.3152
rfingers 7.12502
rthumb -5.80592 15.4147
lclavicle -5.49143e-015 2.3059e-014
lhumerus 3.17341 -42.2858 85.8072
lradius 126.451
lwrist 19.6105
lhand -33.2131 -0.466329
lfingers 7.12502
lthumb -6.41995 29.4164
rfemur -9.7254 12.0712 16.2909
rtibia 8.0466
rfoot -6.64468 -19.6703
rtoes -25.5233
lfemur 0 0 0
ltibia 0
lfoot 0 0
ltoes 0
1006
root -0.57109 17.8657 0.731705 -123.787 86.7765 -134.29
lowerback -7.12337 0.866577 1.45187
upperback -2.45291 1.15378 -1.78898
thorax 1.52603 0.597689 -2.56264
lowerneck -4.72163 -7.59913 -8.06625
upperneck 51.9783 -5.28845 0.680075
head 23.4626 -2.23553 1.51866
rclavicle -6.4605e-016 1.59028e-015
rhumerus 13.2705 41.8568 -72.7669
rradius 123.93
rwrist 18.7307
rhand -32.8277 45.7162
rfingers 7.12502
rthumb -6.04791 15.8225
lclavicle -6.4605e-016 1.59028e-015
lhumerus 3.04439 -42.6296 85.7826
lradius 126.751
lwrist 19.3839
lhand -33.2275 -0.371179
lfingers 7.12502
lthumb -6.43388 29.5111
rfemur -9.77117 12.0351 16.2834
rtibia 8.14747
rfoot -6.75038 -19.656
rtoes -25.3104
lfemur 0 0 0
ltibia 0
lfoot 0 0
ltoes 0
1007
root -0.579146 17.8664 0.732143 -124.173 86.7895 -134.677
lowerback -6.922 0.841797 1.42164
upperback -2.37109 1.12334 -1.85396
thorax 1.49768 0.581711 -2.61728
lowerneck -4.57007 -7.67757 -8.1866
upperneck 51.8825 -5.31046 0.45374
head 23.2992 -2.30267 1.40359
rclavicle 6.95746e-016 -1.35174e-014
rhumerus 13.362 41.9972 -72.5898
rradius 124.147
rwrist 19.2877
rhand -33.05 46.252
rfingers 7.12502
rthumb -6.26253 16.3646
lclavicle 6.95746e-016 -1.35174e-014
lhumerus 2.90185 -43.0612 85.7777
lradius 127.072
lwrist 19.1246
lhand -33.2583 -0.187883
lfingers 7.12502
lthumb -6.46357 29.6935
rfemur -9.81869 12.0229 16.2428
rtibia 8.18451
rfoot -6.99637 -19.6357
rtoes -24.2844
lfemur 0 0 0
ltibia 0
lfoot 0 0
ltoes 0
1008
root -0.586746 17.8674 0.732757 -123.96 86.7821 -134.507
lowerback -6.82807 0.833383 1.40475
upperback -2.25808 1.11297 -1.91266
thorax 1.56226 0.576947 -2.66963
lowerneck -4.43134 -7.78699 -8.23271
upperneck 51.727 -5.37983 0.137498
head 23.0704 -2.38585 1.21324
rclavicle -1.19271e-014 7.95139e-015
rhumerus 13.4859 42.0314 -72.3977
rradius 124.376
rwrist 19.856
rhand -32.9847 46.2623
rfingers 7.12502
rthumb -6.19945 16.373
lclavicle -1.19271e-014 7.95139e-015
lhumerus 2.89772 -43.4482 85.6643
lradius 127.326
lwrist 18.9628
lhand -33.1916 -0.201437
lfingers 7.12502
lthumb -6.39921 29.6819
rfemur -9.91926 12.0231 16.2324
rtibia 8.23312
rfoot -7.12333 -19.64
rtoes -23.3896
lfemur 0 0 0
ltibia 0
lfoot 0 0
ltoes 0
1009
root -0.592893 17.8686 0.732867 -123.408 86.7311 -134.021
lowerback -6.77899 0.825647 1.48202
upperback -2.14714 1.09703 -1.9633
thorax 1.65073 0.569752 -2.76672
lowerneck -4.34462 -7.92206 -8.43512
upperneck 51.626 -5.46284 -0.118618
head 22.9482 -2.49854 1.08565
rclavicle -1.49089e-015 -2.38542e-014
rhumerus 13.545 42.0891 -72.2352
rradius 124.611
rwrist 20.4394
rhand -32.8865 46.1145
rfingers 7.12502
rthumb -6.10463 16.2225
lclavicle -1.49089e-015 -2.38542e-014
lhumerus 2.99575 -43.7959 85.4795
lradius 127.526
lwrist 18.873
lhand -33.2419 -0.39211
lfingers 7.12502
lthumb -6.44777 29.4897
rfemur -10.0482 12.0142 16.275
rtibia 8.26965
rfoot -6.76753 -19.6817
rtoes -24.3407
lfemur 0 0 0
ltibia 0
lfoot 0 0
ltoes 0
1010
root -0.598122 17.869 0.733003 -123.32 86.7503 -133.991
lowerback -6.665 0.82681 1.34859
upperback -2.06812 1.10781 -2.00716
thorax 1.66798 0.575238 -2.73673
lowerneck -4.29901 -8.07008 -8.41677
upperneck 51.5294 -5.53677 -0.552343
head 22.8064 -2.58131 0.820392
rclavicle -6.60959e-015 1.11319e-014
rhumerus 13.4735 42.2169 -72.1857
rradius 124.796
rwrist 21.2452
rhand -32.7732 46.5265
rfingers 7.12502
rthumb -5.99524 16.6313
lclavicle -6.60959e-015 1.11319e-014
lhumerus 2.98362 -44.1834 85.3929
lradius 127.77
lwrist 18.7837
lhand -33.15 -0.454175
lfingers 7.12502
lthumb -6.35899 29.4304
rfemur -10.1224 12.0226 16.2412
rtibia 8.23583
rfoot -6.49591 -19.6629
rtoes -25.575
lfemur 0 0 0
ltibia 0
lfoot 0 0
ltoes 0
1011
root -0.603456 17.8689 0.733308 -123.369 86.7699 -134.086
lowerback -6.57599 0.833727 1.06946
upperback -1.92661 1.1348 -2.0377
thorax 1.76144 0.589369 -2.60876
lowerneck -4.29177 -8.27182 -8.15783
upperneck 51.3478 -5.72993 -1.11312
head 22.565 -2.6817 0.418274
rclavicle -1.88845e-015 2.38542e-014
rhumerus 13.4895 42.299 -72.0965
rradius 125
rwrist 22.0619
rhand -32.5028 47.2113
rfingers 7.12502
rthumb -5.73415 17.3088
lclavicle -1.88845e-015 2.38542e-014
lhumerus 3.07257 -44.6495 85.2749
lradius 127.986
lwrist 18.6441
lhand -33.0821 -0.409065
lfingers 7.12502
lthumb -6.29345 29.4774
rfemur -10.1462 12.0251 16.1988
rtibia 8.13601
rfoot -6.41427 -19.6623
rtoes -25.6368
lfemur 0 0 0
ltibia 0
lfoot 0 0
ltoes 0
1012
root -0.608354 17.8691 0.733677 -123.103 86.7472 -133.853
lowerback -6.52859 0.835757 0.982468
upperback -1.74684 1.14291 -2.0862
thorax 1.92012 0.594657 -2.60852
lowerneck -4.25656 -8.46377 -8.0654
upperneck 51.1154 -5.92143 -1.58015
head 22.2943 -2.81017 0.105449
rclavicle 1.2424e-014 -1.51076e-014
rhumerus 13.6818 42.3299 -71.8904
rradius 125.171
rwrist 22.6452
rhand -32.4802 47.613
rfingers 7.12502
rthumb -5.71237 17.71
lclavicle 1.2424e-014 -1.51076e-014
lhumerus 3.16487 -45.0533 85.1136
lradius 128.186
lwrist 18.4828
lhand -33.1007 -0.551059
lfingers 7.12502
lthumb -6.31138 29.3349
rfemur -10.1718 12.0222 16.2159
rtibia 8.08045
rfoot -6.37195 -19.6399
rtoes -25.4167
lfemur 0 0 0
ltibia 0
lfoot 0 0
ltoes 0
1013
root -0.613065 17.869 0.734648 -122.735 86.6987 -133.521
lowerback -6.47019 0.825763 1.07703
upperback -1.60716 1.12379 -2.14696
thorax 2.03347 0.586575 -2.7261
lowerneck -4.12393 -8.58346 -8.20848
upperneck 50.8624 -5.97522 -1.95312
head 22.003 -2.92207 -0.0770277
rclavicle -8.24956e-015 1.11319e-014
rhumerus 13.7863 42.4138 -71.677
rradius 125.385
rwrist 22.9721
rhand -32.9273 47.4546
rfingers 7.12502
rthumb -6.14402 17.5637
lclavicle -8.24956e-015 1.11319e-014
lhumerus 3.24668 -45.3364 84.9784
lradius 128.346
lwrist 18.4028
lhand -33.0767 -0.639903
lfingers 7.12502
lthumb -6.28824 29.2468
rfemur -10.1867 12.0129 16.2746
rtibia 8.02995
rfoot -6.30917 -19.6328
rtoes -25.459
lfemur 0 0 0
ltibia 0
lfoot 0 0
ltoes 0
